<?xml version="1.0" standalone="no"?>
<!DOCTYPE svg PUBLIC "-//W3C//DTD SVG 1.1//EN" "http://www.w3.org/Graphics/SVG/1.1/DTD/svg11.dtd" >
<!--
2013-9-30: Created.
-->
<svg>
<metadata>
Created by iconfont
</metadata>
<defs>

<font id="iconfont" horiz-adv-x="1024" >
  <font-face
    font-family="iconfont"
    font-weight="500"
    font-stretch="normal"
    units-per-em="1024"
    ascent="896"
    descent="-128"
  />
    <missing-glyph />
    
    <glyph glyph-name="xinshu" unicode="&#58915;" d="M452.5 365.1h105.8v38.4H452.5v46h115.4V489H407.7v-220.1h165.5v39.5H452.5zM320.1 335.7L233.5 489h-48v-220.1h42.7v156l89.2-156h45.4V489h-42.7zM590.5 489zM793.2 361.9l-6.7-33.7-6.7 35.1-26 125.7h-48.4l-24.7-126.5-6.3-34.3-6.4 35.1L639.1 489h-48.6l62.1-220.1h42.6l26.4 128.4 7.8 42.5 7.7-42.5 26.5-128.4h43.8L869.1 489h-46.6zM976.9 581c-25.5 60.2-61.9 114.2-108.3 160.6C822.2 788 768.1 824.4 708 849.9 645.7 876.2 579.5 889.6 511.3 889.6S376.9 876.2 314.6 849.9C254.4 824.4 200.4 788 154 741.6S71.2 641.1 45.7 581C19.4 518.7 6 452.5 6 384.3s13.4-134.4 39.7-196.7C71.2 127.4 107.6 73.4 154 27s100.4-82.8 160.6-108.3c62.3-26.4 128.5-39.7 196.7-39.7s134.4 13.4 196.7 39.7c60.2 25.5 114.2 61.9 160.6 108.3s82.8 100.4 108.3 160.6c26.4 62.3 39.7 128.5 39.7 196.7s-13.4 134.4-39.7 196.7zM830.8 64.8C745.5-20.6 632-67.6 511.3-67.6s-234.2 47-319.5 132.4C106.4 150.1 59.4 263.6 59.4 384.3s47 234.2 132.4 319.5c85.3 85.3 198.8 132.3 319.5 132.3s234.2-47 319.5-132.3S963.2 505 963.2 384.3c0-120.7-47-234.2-132.4-319.5z"  horiz-adv-x="1024" />

    
    <glyph glyph-name="flow-finish" unicode="&#58957;" d="M696.13289 768.425249H255.149502a85.049834 85.049834 0 0 1-85.049834-85.049834v-569.833887a85.049834 85.049834 0 0 1 85.049834-85.049834h326.591362a212.624585 212.624585 0 0 0-55.707641 144.584718 200.292359 200.292359 0 0 0 4.252491 42.524917 192.212625 192.212625 0 0 0 9.355482 31.468438c0 3.827243 4.252492 11.056478 4.252492 11.056479l25.51495 42.524917a206.245847 206.245847 0 0 0 27.641196 30.192691A209.222591 209.222591 0 0 0 738.657807 385.700997a200.292359 200.292359 0 0 0 42.524917-4.252492V683.375415a85.049834 85.049834 0 0 1-85.049834 85.049834zM552.82392 447.787375H297.674419a21.262458 21.262458 0 0 0-21.262459 21.262459 21.262458 21.262458 0 0 0 21.262459 21.262458h255.149501a21.262458 21.262458 0 0 0 21.262459-21.262458 21.687708 21.687708 0 0 0-21.262459-21.262459z m85.049834 127.574751H297.674419a21.262458 21.262458 0 0 0-21.262459 21.262459 21.262458 21.262458 0 0 0 21.262459 21.262458h340.199335a21.262458 21.262458 0 0 0 21.262459-21.262458 21.687708 21.687708 0 0 0-21.262459-21.262459zM757.368771 335.94684400000006a170.099668 170.099668 0 1 1 170.099668-170.099668 170.099668 170.099668 0 0 1-170.099668 170.099668z m0-246.644518a76.54485 76.54485 0 1 0 76.54485 76.54485 76.54485 76.54485 0 0 0-76.54485-77.820598zM757.368771 199.86711000000003a34.019934 34.019934 0 0 1 0-68.039867 34.019934 34.019934 0 1 1 0 68.039867z"  horiz-adv-x="1024" />

    
    <glyph glyph-name="icon-category" unicode="&#58884;" d="M349.75939941 805.875H219.90100097C148.5447998 805.875 90.125 747.4552002 90.125 676.09899903V546.32299805c0-71.35620117 58.41979982-129.77600098 129.77600098-129.77600098H349.67700195c71.35620117 0 129.77600098 58.41979982 129.77600098 129.77600098V676.09899903C479.53540039 747.4552002 421.11560058 805.875 349.75939941 805.875z m454.33959962 0H674.24060059c-71.35620117 0-129.77600098-58.41979982-129.77600098-129.77600098V546.32299805c0-71.35620117 58.41979982-129.77600098 129.77600098-129.77600098h129.77600097c71.35620117 0 129.77600098 58.41979982 129.77600099 129.77600098V676.09899903C933.875 747.4552002 875.4552002 805.875 804.09899903 805.875zM349.75939941 351.53540038999995H219.90100097C148.5447998 351.53540038999995 90.125 293.11560058 90.125 221.75939941000001v-129.77600097C90.125 20.544799799999964 148.5447998-37.875 219.90100097-37.875H349.67700195c71.35620117 0 129.77600098 58.41979982 129.77600098 129.77600098V221.75939941000001c0.08239747 71.35620117-58.33740234 129.77600098-129.69360352 129.77600098z m454.33959962 0H674.24060059c-71.35620117 0-129.77600098-58.41979982-129.77600098-129.77600098v-129.77600097c0-71.35620117 58.41979982-129.77600098 129.77600098-129.77600099h129.77600097c71.35620117 0 129.77600098 58.41979982 129.77600099 129.77600099V221.75939941000001c0.08239747 71.35620117-58.33740234 129.77600098-129.69360353 129.77600098z"  horiz-adv-x="1024" />

    
    <glyph glyph-name="home" unicode="&#58885;" d="M961.72259555-133.29749332999995H59.94723555c-18.64135111 0-37.28270222 9.32067555-48.93354666 23.30168888-11.65084445 16.31118222-16.31118222 34.95253333-11.65084444 53.59388445 46.60337778 237.67722667 240.00739555 414.77006222 473.02428444 433.41141333 78.06065778 0 162.52928-9.90321778 246.99790222-44.27320888 24.46677333-9.90321778 32.62236445-16.31118222 46.60337778-23.3016889 135.14979555-76.89557333 228.35655111-209.7152 258.64874666-365.83651555 4.66033778-18.64135111 0-37.28270222-13.98101333-53.59388445-11.65084445-13.98101333-30.29219555-23.30168889-48.93354667-23.30168888zM61.11232-95.43224888999998c-7.57304889 0-14.56355555 2.91271111-18.64135111 8.15559111-0.58254222 0.58254222-0.58254222 1.16508445-1.16508444 1.74762667-5.82542222 5.82542222-6.40796445 15.72864-5.24288 21.55406222 43.10812445 221.36604445 224.27875555 387.39057778 440.98446222 403.11921778h17.47626666c104.27505778 0 204.47232-32.62236445 253.40586667-63.49710222C876.08888889 198.75157333000004 961.72259555 78.16533332999995 988.51953778-63.974968890000014c1.16508445-8.15559111-0.58254222-15.72864-6.40796445-23.30168889-4.07779555-5.24288-11.06830222-8.15559111-18.64135111-8.15559111H61.11232zM494.52373333 325.16323554999997c101.36234667 0 198.64689778-31.45728 245.83281778-61.16693333h0.58254222c124.66403555-73.98286222 207.38503111-191.07384889 233.01688889-329.71889777 0.58254222-2.91271111 0.58254222-6.99050667-4.07779555-12.23338667-0.58254222-1.16508445-3.49525333-2.33016889-6.99050667-2.33016889H61.11232c-3.49525333 0-6.40796445 1.16508445-6.99050667 2.33016889-0.58254222 1.16508445-1.74762667 2.33016889-2.91271111 2.91271111-1.16508445 1.16508445-2.33016889 4.66033778-1.16508444 8.73813333 41.94304 214.95808 217.28824889 375.73973333 427.58599111 391.46837333 5.24288-0.58254222 11.06830222 0 16.89372444 0m0 29.12711112c-5.82542222 0-12.23338667 0-18.05880888-0.58254222C252.76871111 337.39662222000004 66.3552 167.29429332999996 22.08199111-61.06225777999998c-2.33016889-11.65084445 0-25.63185778 9.32067556-34.95253333 6.99050667-9.32067555 18.64135111-13.98101333 30.29219555-13.98101334H963.47022222c11.65084445 0 23.30168889 4.66033778 30.29219556 13.98101334 6.99050667 9.32067555 11.65084445 20.97152 9.32067555 34.95253333-27.96202667 149.13080889-116.50844445 271.46467555-246.99790222 349.52533333-49.51608889 30.87473778-150.87843555 65.82727111-261.56145778 65.82727112zM512 356.03797333c-146.80064 0-267.96942222 121.16878222-267.96942222 267.96942222S365.19936 891.97681778 512 891.97681778s267.96942222-121.16878222 267.96942222-267.96942223S658.80064 356.03797333 512 356.03797333zM512 393.90321778c-126.99420445 0-230.10417778 103.10997333-230.10417778 230.10417777S385.00579555 854.11157333 512 854.11157333s230.10417778-103.10997333 230.10417778-230.10417778-103.10997333-230.10417778-230.10417778-230.10417777zM512 839.54801778c118.83861333 0 215.54062222-96.70200889 215.54062222-215.54062223S630.83861333 408.46677333 512 408.46677333s-215.54062222 96.70200889-215.54062222 215.54062222 96.70200889 215.54062222 215.54062222 215.54062223m0 29.12711111c-135.14979555 0-244.66773333-109.51793778-244.66773333-244.66773334s109.51793778-244.66773333 244.66773333-244.66773333 244.66773333 109.51793778 244.66773333 244.66773333S647.14979555 868.67512889 512 868.67512889z"  horiz-adv-x="1024" />

    
    <glyph glyph-name="bangdan" unicode="&#59349;" d="M944 832c8.837 0 16-7.163 16-16s-7.163-16-16-16h-79v-640a16 16 0 0 0-7.291-13.422l-0.305-0.193-337-208a16 16 0 0 0-16.826 0.01l-336 208A16 16 0 0 0 160 160V800H80c-8.837 0-16 7.163-16 16s7.163 16 16 16h864zM833 800H192v-631.087l320.012-198.102L833 168.928V800zM652.41 609.378c-1.77 5.785-6.29 10.178-12.137 11.727l-69.952 18.808-43.495 70.805c-3.193 5.184-8.724 8.282-14.825 8.282-6.1 0-11.632-3.098-14.825-8.282l-43.494-70.805-69.952-18.808c-5.848-1.58-10.368-5.974-12.138-11.727-1.77-5.784-0.443-11.948 3.54-16.5l47.699-54.526-8.63-83.133c-0.632-6.133 2.055-12.233 7.05-15.868 4.994-3.635 11.6-4.363 17.258-1.865l73.46 32.4 73.461-32.4c2.244-0.98 4.615-1.486 6.986-1.486 3.635 0 7.238 1.138 10.241 3.319 4.995 3.635 7.681 9.704 7.05 15.868l-8.63 83.133 47.699 54.526c4.077 4.584 5.405 10.78 3.635 16.532zM365 355m16 0l262 0q16 0 16-16l0 0q0-16-16-16l-262 0q-16 0-16 16l0 0q0 16 16 16ZM312 275m16 0l368 0q16 0 16-16l0 0q0-16-16-16l-368 0q-16 0-16 16l0 0q0 16 16 16Z"  horiz-adv-x="1024" />

    
    <glyph glyph-name="faxian" unicode="&#59053;" d="M512 896c282.7776 0 512-229.2224 512-512s-229.2224-512-512-512S0 101.2224 0 384 229.2224 896 512 896z m251.5968-271.2576a25.6 25.6 0 0 1-34.5088 10.752L428.544 478.208a25.6 25.6 0 0 1-10.752-10.8032l-157.3888-300.544a25.6 25.6 0 0 1 34.5088-34.5088l300.544 157.3888a25.6 25.6 0 0 1 10.752 10.8032l157.3888 300.4928a25.6 25.6 0 0 1 0 23.7568zM512 435.2a51.2 51.2 0 1 0 0-102.4 51.2 51.2 0 0 0 0 102.4z"  horiz-adv-x="1024" />

    
    <glyph glyph-name="shuchengxuanzhong" unicode="&#58901;" d="M834.3808 874.2912c50.56-0.6656 91.0336-41.8048 90.496-91.9552v-796.672c0.5376-50.176-39.936-91.2896-90.496-91.9296H170.5728c-50.56 0.64-91.0336 41.7792-90.496 91.904V782.3872C79.5648 832.512 120.0128 873.6256 170.5728 874.2656z m-179.968-744.2432h-303.872a29.0816 29.0816 0 1 1 0-58.1376h303.872l3.1744 0.1792a29.0816 29.0816 0 0 1-3.1488 57.9584zM242.3808 696.7552A30.3872 30.3872 0 0 1 213.5296 665.088c0.128-2.816 12.9792-283.5968 290.4832-283.5968 84.6592 0 151.8592 25.728 199.8592 76.544 76.9024 81.536 73.984 197.12 73.856 201.8816a30.1824 30.1824 0 0 1-29.9008 29.4912h-0.9472l-3.2768-0.3328a30.4128 30.4128 0 0 1-25.7024-31.232c0-0.9472 1.8688-95.232-57.3952-157.6448-36.224-38.2208-88.9088-57.4976-156.4928-57.4976-219.2384 0-230.272 215.4496-230.6304 224.6144a30.6944 30.6944 0 0 1-31.0272 29.44z"  horiz-adv-x="1024" />

    
    <glyph glyph-name="shouyeiconfenleibeifen10" unicode="&#58922;" d="M772.212364 841.146182c68.375273 0 123.787636-55.831273 123.787636-124.672v-664.948364c0-68.840727-55.412364-124.672-123.787636-124.672H215.202909c-68.352 0-123.764364 55.831273-123.764364 124.672V716.474182c0 68.840727 55.389091 124.672 123.764364 124.672h557.009455zM329.146182 778.821818H215.202909a62.091636 62.091636 0 0 1-61.789091-58.693818l-0.093091-3.653818v-664.948364A62.138182 62.138182 0 0 1 211.549091-10.705455l3.630545-0.09309h113.943273V778.821818z m443.066182 0H384v-789.643636H772.189091a62.091636 62.091636 0 0 1 61.789091 58.693818l0.116363 3.653818V716.474182a62.138182 62.138182 0 0 1-58.251636 62.231273l-3.653818 0.09309z"  horiz-adv-x="1024" />

    
    <glyph glyph-name="shipin" unicode="&#59185;" d="M512 0c-211.2 0-384 172.8-384 384s172.8 384 384 384 384-172.8 384-384S723.2 0 512 0M512 896c-281.6 0-512-230.4-512-512s230.4-512 512-512 512 230.4 512 512S793.6 896 512 896M665.6 460.8l-160 108.8c-51.2 32-121.6-6.4-121.6-76.8l0-211.2c0-64 64-108.8 121.6-76.8l160 108.8C716.8 345.6 716.8 422.4 665.6 460.8"  horiz-adv-x="1024" />

    
    <glyph glyph-name="vip1" unicode="&#58956;" d="M512.268258 777.934759L853.425824 580.967892v-393.93476L512.268258-9.934759 171.110692 187.032108V580.967892L512.268258 777.934759m0 53.621899L124.672373 607.778329v-447.556658l387.594861-223.778329 387.595885 223.778329V607.778329L512.268258 831.556658zM296.883741 511.059049l57.55669-202.715983c6.516006 25.294063 14.117331 53.659782 22.804998 85.096133s19.78556 71.001328 33.302894 118.705169h49.592909L386.294527 255.853584h-64.796583c-14.722447 51.810645-28.359576 98.683091-40.905242 140.617339-12.550786 41.929128-24.253796 80.12517-35.113124 114.588126h51.404163zM492.357784 511.782936h46.696338v-255.928328h-46.696338V511.782936zM587.922121 511.782936h100.633593c26.301566 0 47.964932-7.629993 64.97781-22.88998 17.013902-15.259987 25.521366-35.740765 25.521366-61.453597 0-15.379781-3.512951-29.315885-10.526565-41.810357-9.434079-16.583871-22.743565-28.235686-39.914122-34.965684-13.066825-5.045707-31.092326-7.56856-54.078551-7.568561H635.342346v-87.240149h-47.420225V511.782936z m96.115187-129.23071c14.049754 0 25.191675 4.581887 33.426784 13.755899 8.23511 9.168893 12.358296 20.870878 12.358296 35.113124 0 13.269554-4.728302 23.224791-14.174669 29.864687-9.446366 6.634777-20.955861 9.955237-34.519269 9.955237h-45.787128v-88.687923h48.695986z"  horiz-adv-x="1024" />

    
    <glyph glyph-name="laba3" unicode="&#58882;" d="M836.5 520.4c-72.9 169.9-190.3 299.1-249.6 275-100.8-41.1 60-238-435-439.4-42.8-17.5-53.6-87-35.7-128.7 17.9-41.6 76.3-83 119.1-65.6 7.4 3 34.6 11.8 34.6 11.8 30.5-41.1 62.5-16.7 73.9-42.8 13.6-31.3 43.2-99.5 53.3-122.6 10.1-23.1 32.9-44.6 49.5-38.3 16.5 6.3 72.8 27.7 94.4 35.9 21.5 8.2 26.7 27.5 20.1 42.6-7.1 16.4-36.2 21.2-44.5 40.2-8.3 19-35.4 80.1-43.2 99.4-10.6 26.2 11.9 47.5 44.7 50.9 225.3 23.6 267.5-115.8 344.2-84.5 59.2 24.3 47.1 196.4-25.8 366.1zM811.1 245c-13.2-5.3-101.9 64.6-158.5 196.7-56.7 132-49.5 252.6-36.4 258 13.2 5.3 99.7-79.1 156.3-211.1 56.7-132 51.8-238.2 38.6-243.6z"  horiz-adv-x="1024" />

    
    <glyph glyph-name="redianshipin" unicode="&#58906;" d="M778.24 614.4C665.6 581.12 645.12 491.52 652.8 435.2 573.44 529.92 576 637.44 576 793.6c-256-97.28-197.12-376.32-204.8-460.8-64 53.76-76.8 179.2-76.8 179.2C225.28 476.16 192 384 192 307.2c0-184.32 148.48-332.8 332.8-332.8s332.8 148.48 332.8 332.8c0 110.08-79.36 158.72-79.36 307.2zM537.6 25.6c-163.84 0-294.4 138.24-294.4 291.84 0 35.84 0 64 25.6 92.16-2.56-15.36 35.84-156.16 161.28-148.48-5.12 104.96-33.28 363.52 97.28 453.12C514.56 573.44 550.4 384 704 358.4c-7.68 56.32-7.68 151.04 30.72 166.4 5.12-87.04 69.12-138.24 69.12-222.72 0-148.48-143.36-276.48-266.24-276.48z"  horiz-adv-x="1024" />

    
    <glyph glyph-name="taiyang" unicode="&#58900;" d="M300 384.6a212 212 0 1 1 424 0 212 212 0 1 1-424 0zM313.7 384.6a198.3 198.3 0 1 1 396.6 0 198.3 198.3 0 1 1-396.6 0zM511.7 765.8c12.9 0.2 24.2-11.3 24.5-24.3l0.4-79.6c0.2-12.9-11.3-24.2-24.3-24.5-12.9-0.2-24.2 11.3-24.5 24.3l-0.4 79.6c0.9 14.9 11.4 24.3 24.3 24.5zM901.5 386c-0.2-12.9-9.6-23.4-24.5-24.3l-79.6 0.4c-12.9 0.2-24.5 11.5-24.3 24.5 0.2 12.9 11.5 24.5 24.5 24.3l79.6-0.4c12.9-0.3 24.5-11.6 24.3-24.5z m-650.6 0c-0.2-12.9-9.6-23.4-24.5-24.3l-79.6 0.4c-12.9 0.2-24.5 11.5-24.3 24.5 0.2 12.9 11.5 24.5 24.5 24.3l79.6-0.4c12.9-0.3 24.5-11.6 24.3-24.5z m261.4-383.8c-12.9-0.2-24.2 11.3-24.5 24.3l-0.4 79.6c-0.2 12.9 11.3 24.2 24.3 24.5 12.9 0.2 24.2-11.3 24.5-24.3l0.4-79.6c-0.9-14.9-11.4-24.3-24.3-24.5zM781.2 653.7c9.3-9 9.1-25.1 0.1-34.5l-56-56.5c-9-9.3-25.1-9.1-34.5-0.1-9.3 9-9.1 25.1-0.1 34.5l56 56.5c11.1 9.9 25.1 9.1 34.5 0.1z m7-544.2c-9.3-9-23.3-9.8-34.5 0.1l-56 56.5c-9 9.3-9.2 25.5 0.1 34.5 9.3 9 25.5 9.2 34.5-0.1l56-56.5c9-9.3 9.2-25.5-0.1-34.5zM328.1 569.6c-9.3-9-23.3-9.8-34.5 0.1l-56 56.5c-9 9.3-9.2 25.5 0.1 34.5 9.3 9 25.5 9.2 34.5-0.1l56-56.5c9-9.4 9.3-25.5-0.1-34.5z m-86.5-456.2c-9.3 9-9.1 25.1-0.1 34.5l56 56.5c9 9.3 25.1 9.1 34.5 0.1 9.3-9 9.1-25.1 0.1-34.5l-56-56.5c-11.1-9.9-25.2-9.1-34.5-0.1z"  horiz-adv-x="1024" />

    
    <glyph glyph-name="jiazai" unicode="&#58948;" d="M179.626667 153.173333a32 32 0 0 0-27.306667 15.146667A423.04 423.04 0 0 0 382.08 792.533333a32 32 0 0 0 19.626667-60.8 359.04 359.04 0 0 1-194.986667-529.92 32 32 0 0 0-27.306667-48.853333zM607.786667-21.333333a32 32 0 0 0-7.893334 64 358.826667 358.826667 0 0 1 111.786667 645.546666A32 32 0 0 0 746.666667 741.333333a422.826667 422.826667 0 0 0-131.626667-760.96 32 32 0 0 0-7.253333-1.706666zM721.205383-111.530304m-28.685091 14.183285l-137.114734 67.796101q-28.685091 14.183285-14.501806 42.868376l0 0q14.183285 28.685091 42.868376 14.501806l137.114734-67.796102q28.685091-14.183285 14.501806-42.868375l0 0q-14.183285-28.685091-42.868376-14.501806ZM679.051515 151.714259m-14.183285-28.68509l-67.796101-137.114734q-14.183285-28.685091-42.868376-14.501806l0 0q-28.685091 14.183285-14.501806 42.868375l67.796102 137.114734q14.183285 28.685091 42.868375 14.501806l0 0q28.685091-14.183285 14.501806-42.868375ZM266.485727 877.640461m30.106293-10.844868l143.908077-51.83847q30.106292-10.844868 19.261424-40.951161l0 0q-10.844868-30.106292-40.951161-19.261424l-143.908077 51.83847q-30.106292 10.844868-19.261424 40.95116l0 0q10.844868 30.106292 40.951161 19.261425ZM338.128835 620.911275m10.844868 30.106292l51.83847 143.908077q10.844868 30.106292 40.95116 19.261424l0 0q30.106292-10.844868 19.261424-40.95116l-51.83847-143.908077q-10.844868-30.106292-40.95116-19.261424l0 0q-30.106292 10.844868-19.261424 40.95116Z"  horiz-adv-x="1024" />

    
    <glyph glyph-name="zhongguohangtiantubiaoheji-weizhuanlunkuo-" unicode="&#58883;" d="M492.57931 18.537930999999958a19.244138 19.244138 0 0 0-6.885517 1.412414 17.655172 17.655172 0 0 0-10.593103 18.714483L512 305.96413800000005h-172.667586A17.655172 17.655172 0 0 0 323.089655 331.034483L476.689655 686.962759a17.655172 17.655172 0 0 0 16.242759 10.593103h252.645517a17.655172 17.655172 0 0 0 15.183448-8.474483 17.655172 17.655172 0 0 0 0-17.655172l-105.931034-205.506207h146.184827a17.655172 17.655172 0 0 0 15.713104-9.886897 17.655172 17.655172 0 0 0-1.588966-17.655172L506.703448 25.600000000000023a17.655172 17.655172 0 0 0-14.124138-7.062069z m-126.411034 322.736552h167.017931a17.655172 17.655172 0 0 0 13.241379-6.002759 17.655172 17.655172 0 0 0 4.237242-13.947586L519.591724 101.51724100000001l247.172414 329.445518h-139.828966a17.655172 17.655172 0 0 0-15.713103 25.6l105.931034 205.506207h-211.862069z"  horiz-adv-x="1129" />

    
    <glyph glyph-name="pinpai3lejiegengduoxinxiicon" unicode="&#59103;" d="M284.960996 412.444444h568.888888v-56.888888H284.960996v56.888888z m568.888888 113.777778L1024.516551 384l-170.666667-142.222222v284.444444z m-11.377777-369.777778c-125.155556-199.111111-386.844444-256-580.266667-130.844444C63.094329 150.755556 0.516551 412.444444 125.672107 611.555556S512.516551 867.555556 705.938773 742.4c51.2-34.133333 96.711111-79.644444 130.844445-130.844444H910.738773C785.583218 844.8 495.449884 935.822222 256.516551 810.666667S-67.750116 395.377778 57.40544 156.444444c125.155556-233.244444 415.288889-324.266667 654.222222-204.8 85.333333 45.511111 159.288889 113.777778 204.8 204.8h-73.955555z"  horiz-adv-x="1024" />

    
    <glyph glyph-name="chazhao" unicode="&#59233;" d="M437.376 9.344c-203.968 0-369.92 165.952-369.92 369.952 0 203.968 165.952 369.856 369.92 369.856 204 0 369.952-165.888 369.952-369.856C807.328 175.296 641.376 9.344 437.376 9.344zM437.952 687.2c-169.824 0-307.968-138.112-307.968-307.904 0-169.856 138.144-308.032 307.968-308.032 169.856 0 308.032 138.176 308.032 308.032C745.984 549.056 607.808 687.2 437.952 687.2zM923.2-165.44c-8.032 0-16.064 2.976-22.368 8.96l-259.264 241.984c-13.056 12.416-13.6 32.992-1.28 46.016 12.448 12.992 32.992 13.632 46.016 1.344l259.264-242.112c13.024-12.352 13.568-32.96 1.248-46.016C940.416-161.984 931.808-165.44 923.2-165.44z"  horiz-adv-x="1024" />

    
    <glyph glyph-name="shijian" unicode="&#58902;" d="M736.879212 302.910283l-226.478128 0L510.401084 528.178863c0 15.433504-10.465352 27.944446-25.895787 27.944446-15.429411 0-25.89374-12.510942-25.89374-27.944446l0-250.743788c0-13.307074 7.251148-22.382776 19.706831-25.196869 2.477424-0.723477 5.104251-1.119497 7.819083-1.119497l250.745834 0c15.433504 0 27.945469 10.463306 27.945469 25.892717-0.004093 15.434527-12.515035 25.898857-27.945469 25.898857L736.879212 302.910283 736.879212 302.910283zM511.999488 701.285432c215.026308 0 389.340379-174.314071 389.340379-389.341403 0-215.024262-174.314071-389.338333-389.340379-389.338333-215.026308 0-389.340379 174.314071-389.340379 389.338333C122.659109 526.971361 296.972157 701.285432 511.999488 701.285432M511.999488 657.678262c-46.700625 0-91.970668-9.134031-134.560672-27.146267-41.162492-17.410532-78.139661-42.34441-109.911272-74.114998-31.772634-31.771611-56.709583-68.753897-74.116021-109.916389-18.012236-42.583864-27.14729-87.853907-27.14729-134.555555 0-46.700625 9.130961-91.969645 27.14729-134.557602 17.410532-41.164538 42.343387-78.140685 74.116021-109.913319 31.771611-31.770588 68.74878-56.707536 109.915365-74.118068 42.584887-18.014282 87.855954-27.143197 134.556579-27.143197s91.969645 9.129938 134.558625 27.143197c41.164538 17.410532 78.140685 42.34748 109.911272 74.118068 31.772634 31.768541 56.709583 68.749804 74.116021 109.913319 18.012236 42.586934 27.14729 87.855954 27.14729 134.557602 0 46.701648-9.129938 91.971691-27.14729 134.555555-17.406438 41.163515-42.343387 78.144778-74.116021 109.916389-31.766494 31.766494-68.747757 56.70856-109.911272 74.114998C603.969133 648.544231 558.700113 657.678262 511.999488 657.678262L511.999488 657.678262 511.999488 657.678262zM511.999488 645.398588"  horiz-adv-x="1024" />

    
    <glyph glyph-name="redian" unicode="&#59623;" d="M423.882 770.952c14.382-9.864 27.628-16.128 39.463-28.083 25.512-25.766 53.612-56.626 67.109-91.717 12.541-32.604 19.628-68.565 21.067-106.881 0.676-18.02 0.077-36.516-1.781-54.973a419.492 419.492 0 0 0-8.839-53.138s-9.813-28.197 7.17-43.677 71.235 19.565 71.235 19.565c48.612 35.518 55.745 54.538 74.413 106.843 8.735 24.474 11.053 55.414 14.617 86.384 8.328-8.995 44.388-43.149 51.5-52.212 11.626-14.815 21.884-30.063 30.488-45.325 7.831-13.887 14.559-28.262 19.999-42.727 9.339-24.833 15.352-50.988 18.381-79.961 2.766-26.445 2.749-51.56 2.734-75.847l-0.002-5.326c0-21.797-2.199-43.835-6.535-65.499-4.248-21.225-10.584-42.289-18.833-62.608a358.64 358.64 0 0 0-29.898-57.853c-11.632-18.233-24.944-35.438-39.566-51.139-14.654-15.736-30.7-30.042-47.694-42.524-17.16-12.603-35.407-23.431-54.232-32.182-19.168-8.91-39.128-15.753-59.326-20.34a286.576 286.576 0 0 0-63.354-7.11c-21.707 0-43.385 2.184-64.432 6.491a317.424 317.424 0 0 0-59.892 18.592 319.312 319.312 0 0 0-54.241 29.443 321.976 321.976 0 0 0-47.311 39.037 321.94 321.94 0 0 0-39.037 47.313 319.378 319.378 0 0 0-29.442 54.241 317.39 317.39 0 0 0-18.591 59.891c-4.307 21.047-6.492 42.724-6.492 64.431 0 25.108 2.915 48.935 8.911 72.842 5.39 21.487 13.193 42.672 23.855 64.764 9.171 19.002 20.691 39.059 35.217 61.315 13.394 20.521 28.104 41.05 42.329 60.904 49.238 68.716 89.06 147.538 103.178 237.765l17.832-10.699z m-48.927 59.793c24.346-216.677-214.243-306.673-214.243-542.205 0-194.005 157.276-351.285 351.286-351.285s351.285 176.05 351.285 370.056c0 94.678 3.457 226.416-185.552 368.574 8.85-134.856-17.93-227.369-105.574-256.584 34.083 146.075 0 335.972-197.202 411.444"  horiz-adv-x="1024" />

    
    <glyph glyph-name="xiazai" unicode="&#59042;" d="M905.846154-128h-787.692308C53.011692-128 0-74.988308 0-9.846154v630.153846C0 685.449846 53.011692 738.461538 118.153846 738.461538h157.538462a39.384615 39.384615 0 0 0 0-78.76923h-157.538462a39.384615 39.384615 0 0 1-39.384615-39.384616v-630.153846a39.384615 39.384615 0 0 1 39.384615-39.384615h787.692308c21.661538 0 39.384615 17.723077 39.384615 39.384615v630.153846a39.384615 39.384615 0 0 1-39.384615 39.384616h-157.538462a39.384615 39.384615 0 0 0 0 78.76923h157.538462c65.142154 0 118.153846-53.011692 118.153846-118.153846v-630.153846c0-65.142154-53.011692-118.153846-118.153846-118.153846zM512 896a39.384615 39.384615 0 0 1-39.384615-39.384615v-551.384616a39.384615 39.384615 0 0 1 78.76923 0v551.384616a39.384615 39.384615 0 0 1-39.384615 39.384615zM343.118769 511.684923a39.384615 39.384615 0 0 1-27.884307-67.190154l167.069538-167.069538a39.384615 39.384615 0 1 1 55.768615 55.611077L371.003077 500.184615a39.227077 39.227077 0 0 1-27.884308 11.500308zM677.572923 511.684923a39.542154 39.542154 0 0 1-27.884308-11.500308L482.619077 333.115077a39.384615 39.384615 0 0 1 55.768615-55.768615l167.069539 167.069538a39.384615 39.384615 0 0 1-27.884308 67.268923z"  horiz-adv-x="1024" />

    
    <glyph glyph-name="vip" unicode="&#58994;" d="M1018.624 492.48L840.96 808.704A47.488 47.488 0 0 1 799.424 832H224.448a47.36 47.36 0 0 1-41.408-23.36L5.248 492.48a41.152 41.152 0 0 1 6.4-48.896l465.216-492.8a49.152 49.152 0 0 1 70.4 0l465.216 492.8a41.216 41.216 0 0 1 6.4 48.896z m-198.848-20.672l-273.152-281.6a49.216 49.216 0 0 0-69.504 0l-273.088 281.6a41.536 41.536 0 0 0 3.328 61.504 49.344 49.344 0 0 0 66.112-3.136L512 284.48l238.336 245.696a49.152 49.152 0 0 0 44.8 13.888 45.952 45.952 0 0 0 35.008-29.44 41.472 41.472 0 0 0-10.304-42.816z m0 0"  horiz-adv-x="1024" />

    
    <glyph glyph-name="VIP" unicode="&#58913;" d="M0 896h1024v-1024H0zM544 724.906667a64 64 0 0 1-64 0L232.789333 582.144a64 64 0 0 1-32-55.424v-285.44a64 64 0 0 1 32-55.466667l247.210667-142.72a64 64 0 0 1 64 0l247.210667 142.762667a64 64 0 0 1 32 55.424v285.44a64 64 0 0 1-32 55.466667L544 724.906667z m21.333333 36.949333l247.210667-142.762667a106.666667 106.666667 0 0 0 53.333333-92.373333v-285.44a106.666667 106.666667 0 0 0-53.333333-92.373333l-247.210667-142.762667a106.666667 106.666667 0 0 0-106.666666 0L211.456 148.906667a106.666667 106.666667 0 0 0-53.333333 92.373333v285.44a106.666667 106.666667 0 0 0 53.333333 92.373333l247.210667 142.762667a106.666667 106.666667 0 0 0 106.666666 0zM272 480h37.205333l64-186.709333h0.981334l63.701333 186.709333h37.205333l-80.725333-225.194667h-41.642667L272 480z m227.413333 0h34.048v-225.194667h-34.090666V480z m78.805334 0h93.354666c53.632 0 80.426667-22.826667 80.426667-68.437333 0-46.08-27.008-69.077333-81.066667-69.077334h-58.325333v-87.68h-34.389333V480z m34.389333-29.312v-78.848h56.149333c17.024 0 29.44 3.157333 37.205334 9.429333 7.765333 6.528 11.648 16.64 11.648 30.293334 0 14.08-3.968 23.978667-11.946667 29.653333-7.808 6.314667-20.096 9.472-36.906667 9.472h-56.149333z"  horiz-adv-x="1024" />

    
    <glyph glyph-name="xihuan_" unicode="&#58880;" d="M512 116.66967571999999c-14.00321589 0-28.00583507 3.81900464-39.46284896 12.72981653-87.83710655 59.83127149-236.77828722 198.5882409-232.95928258 334.79960503 2.54560527 85.29090455 76.38009265 157.85199258 161.6709972 157.85199257 40.73624832 0 80.19909727-15.27601854 109.4783317-43.28185358 36.91664697 34.3710417 86.5637072 49.64706022 137.48416678 40.7362483 72.56108802-11.45701389 128.57275815-72.56108802 134.93796476-145.12217603 14.00321589-173.12860782-206.22625015-328.4343984-231.68647994-344.98381629C540.00583507 121.76148297999998 526.00321589 116.66967571999999 512 116.66967571999999zM401.24886566 583.86104353c-64.92307875 0-122.20814824-54.73886749-123.48095088-120.93474889-3.81900464-119.66254297 140.02977205-249.50870048 216.40986469-301.70136596 11.45701389-7.63800925 25.46022979-7.63800925 35.64444106 0 84.01810192 57.28506949 225.32127333 187.131227 215.13706205 311.88498051-3.81900464 54.73946422-47.10085823 100.56751981-101.84032243 109.47833171-40.73565159 6.36520663-78.92569792-6.36520663-108.20493235-34.3710417-12.72981653-12.72981653-33.09823906-12.72981653-45.8280556 0-22.9140278 22.9140278-54.73886749 35.64384433-87.83710654 35.64384433 1.27280263 0 1.27280263 0 0 0zM550.19004631 434.91986287c-14.00321589 2.54620199-26.73303243-2.54560527-35.64384432-11.45701391-1.27339937-1.27280263-3.81900464-1.27280263-5.09240398 0-7.63800925 7.63800925-17.8216238 11.45701389-28.00583507 11.45701391-21.64122516 0-39.46284896-17.8216238-40.73624832-39.46284898C439.43891198 358.53977021000003 481.44796294 320.34972388000006 504.36199075 305.07370535999996c5.09180727-3.81900464 11.45701389-3.81900464 16.54882115 0 22.9140278 15.27601854 66.19647811 53.46606486 63.65027612 92.92951053-2.54620199 19.09502317-16.54882117 34.3710417-34.3710417 36.91664698z"  horiz-adv-x="1024" />

    
    <glyph glyph-name="xiaolian" unicode="&#59045;" d="M512-57.818c244.023 0 441.818 197.795 441.818 441.818S756.023 825.818 512 825.818 70.182 628.023 70.182 384 267.977-57.818 512-57.818z m0 65.454a376.364 376.364 0 1 0 0 752.728 376.364 376.364 0 0 0 0-752.728zM296 224.495a305.468 305.468 0 0 1 432 0 32.727 32.727 0 1 1-46.31 46.269 240.014 240.014 0 0 0-339.38 0A32.727 32.727 0 1 1 296 224.495zM307.455 469.214a51.136 51.136 0 1 1 102.272 0 51.136 51.136 0 1 1-102.272 0zM614.273 469.214a51.136 51.136 0 1 1 102.272 0 51.136 51.136 0 1 1-102.272 0z"  horiz-adv-x="1024" />

    
    <glyph glyph-name="youxi" unicode="&#58940;" d="M773.688889-8.533333c-71.111111 0-133.688889 76.8-162.133333 204.8v2.844444c-5.688889 51.2-48.355556 88.177778-99.555556 88.177778s-93.866667-36.977778-99.555556-88.177778v-2.844444c-31.288889-128-91.022222-204.8-162.133333-204.8-102.4 0-182.044444 162.133333-182.044444 375.466666 0 147.911111 39.822222 281.6 105.244444 341.333334C219.022222 753.777778 281.6 779.377778 347.022222 779.377778h8.533334c17.066667 0 36.977778-8.533333 51.2-22.755556 14.222222-17.066667 54.044444-34.133333 108.088888-34.133333s93.866667 17.066667 108.088889 34.133333c14.222222 14.222222 31.288889 25.6 51.2 22.755556h5.688889c65.422222 0 128-25.6 173.511111-71.111111 62.577778-56.888889 102.4-190.577778 102.4-341.333334 0-216.177778-76.8-375.466667-182.044444-375.466666z m-105.244445 216.177777c22.755556-93.866667 65.422222-159.288889 108.088889-159.288888 59.733333 0 125.155556 130.844444 125.155556 318.577777 0 130.844444-34.133333 250.311111-85.333333 298.666667-36.977778 36.977778-85.333333 56.888889-133.688889 56.888889h-8.533334c-2.844444 0-5.688889 0-5.688889-2.844445-28.444444-34.133333-85.333333-54.044444-150.755555-54.044444s-125.155556 19.911111-150.755556 54.044444c0 0-2.844444 2.844444-5.688889 2.844445h-8.533333c-51.2 0-99.555556-19.911111-133.688889-56.888889C167.822222 617.244444 130.844444 497.777778 130.844444 366.933333c0-187.733333 65.422222-318.577778 125.155556-318.577777 42.666667 0 85.333333 62.577778 108.088889 159.288888 11.377778 76.8 76.8 136.533333 156.444444 136.533334 71.111111-2.844444 136.533333-59.733333 147.911111-136.533334zM261.688889 506.311111H210.488889c-14.222222 0-25.6-11.377778-25.6-25.6s11.377778-25.6 25.6-25.6h51.2v-51.2c0-8.533333 5.688889-17.066667 11.377778-22.755555 8.533333-5.688889 17.066667-5.688889 25.6 0 8.533333 5.688889 11.377778 14.222222 11.377777 22.755555v51.2h51.2c8.533333 0 17.066667 5.688889 22.755556 11.377778 5.688889 8.533333 5.688889 17.066667 0 25.6-5.688889 8.533333-14.222222 11.377778-22.755556 11.377778H312.888889V554.666667c0 8.533333-5.688889 17.066667-11.377778 22.755555-8.533333 5.688889-17.066667 5.688889-25.6 0-8.533333-5.688889-11.377778-14.222222-11.377778-22.755555v-48.355556h-2.844444zM748.088889 403.911111c42.666667 0 76.8 34.133333 76.8 76.8s-34.133333 76.8-76.8 76.8c-42.666667 0-76.8-34.133333-76.8-76.8s34.133333-76.8 76.8-76.8z"  horiz-adv-x="1024" />

    
    <glyph glyph-name="shouye1-copy" unicode="&#58881;" d="M562.805 815.3025a72.135 72.135 0 0 1-96.93 0L73.925 443.13a36.1575 36.1575 0 0 1 48.42-53.7075l6.2325 5.9175V6.899999999999977a72.315 72.315 0 0 1 72.315-72.405h210.4425v217.71a50.9175 50.9175 0 0 0 50.94 50.985h99.0225a50.9175 50.9175 0 0 0 50.94-50.985v-217.71h215.4375a72.315 72.315 0 0 1 72.3375 72.405V390.5925c16.065-14.535 38.8575-13.4325 52.2225 1.4625a36.1575 36.1575 0 0 1-2.61 51.075L562.805 815.28z"  horiz-adv-x="1024" />

    


  </font>
</defs>
</svg>
